<svg xmlns="http://www.w3.org/2000/svg" width="85" height="95" viewBox="0 0 85 95">
    <g fill="#ED3C76" fill-rule="nonzero">
        <path d="M33.8 45.3h17.4v2.8H33.8zM33.8 58.2h9.4V61h-9.4zM33.8 51.6h17.4v2.8H33.8zM48.6 35.3c0 .8.6 1.4 1.4 1.4h4.3L48.6 31v4.3z"/>
        <path d="M80.7 21.4l-34.6-20c-2.2-1.3-5-1.3-7.2 0l-34.6 20C2.1 22.7.7 25.1.7 27.6v40c0 2.6 1.4 5 3.6 6.2l34.6 20c1.1.6 2.3 1 3.6 1 1.3 0 2.5-.3 3.6-1l34.6-20c2.2-1.3 3.6-3.7 3.6-6.2v-40c0-2.5-1.3-4.9-3.6-6.2zM59.9 63.7c0 2.8-2.3 5.1-5.1 5.1H30.1c-2.8 0-5.1-2.3-5.1-5.1V30.2c0-2.8 2.3-5.1 5.1-5.1h17.3l.6.2c.2.1.3.2.4.3l10.9 11.1c.2.2.3.4.4.7v.2l.1.5v25.6h.1z"/>
    </g>
</svg>
