<svg xmlns="http://www.w3.org/2000/svg" width="84" height="95" viewBox="0 0 84 95">
    <g fill="none" fill-rule="evenodd">
        <path fill="#ED3C76" d="M80 20.975l-34.6-20c-2.2-1.3-5-1.3-7.2 0l-34.6 20c-2.2 1.3-3.6 3.7-3.6 6.2v40c0 2.6 1.4 5 3.6 6.2l34.6 20c1.1.6 2.3 1 3.6 1 1.3 0 2.5-.3 3.6-1l34.6-20c2.2-1.3 3.6-3.7 3.6-6.2v-40c0-2.5-1.3-4.9-3.6-6.2z"/>
        <path fill="#FFF" fill-rule="nonzero" d="M46.1 30.001a2.786 2.786 0 0 0-2.603 2.056l-8.33 28.295a2.875 2.875 0 0 0 .646 2.762 2.75 2.75 0 0 0 2.671.807 2.806 2.806 0 0 0 2.02-1.956l8.329-28.294a2.873 2.873 0 0 0-.44-2.552A2.758 2.758 0 0 0 46.099 30zm-15.162 3.537a2.75 2.75 0 0 0-1.952.796L17.88 44.944a2.855 2.855 0 0 0-.88 2.067c0 .784.319 1.532.88 2.067l11.106 10.61a2.747 2.747 0 0 0 2.71.652 2.817 2.817 0 0 0 1.91-2.067 2.873 2.873 0 0 0-.803-2.718l-8.936-8.533 8.936-8.554a2.867 2.867 0 0 0 .73-3.118 2.778 2.778 0 0 0-2.595-1.812zm22.037 0a2.781 2.781 0 0 0-2.524 1.852 2.866 2.866 0 0 0 .746 3.078l8.936 8.554-8.936 8.533a2.873 2.873 0 0 0-.802 2.718 2.817 2.817 0 0 0 1.908 2.067 2.747 2.747 0 0 0 2.711-.651l11.106-10.61c.561-.536.88-1.284.88-2.068 0-.783-.319-1.532-.88-2.067l-11.106-10.61a2.748 2.748 0 0 0-2.039-.796z"/>
    </g>
</svg>
