<svg xmlns="http://www.w3.org/2000/svg" width="84" height="95" viewBox="0 0 84 95">
    <g fill="none" fill-rule="evenodd">
        <path fill="#ED3C76" d="M80 20.975l-34.6-20c-2.2-1.3-5-1.3-7.2 0l-34.6 20c-2.2 1.3-3.6 3.7-3.6 6.2v40c0 2.6 1.4 5 3.6 6.2l34.6 20c1.1.6 2.3 1 3.6 1 1.3 0 2.5-.3 3.6-1l34.6-20c2.2-1.3 3.6-3.7 3.6-6.2v-40c0-2.5-1.3-4.9-3.6-6.2z"/>
        <g fill="#FFF" fill-rule="nonzero">
            <path d="M38.8 62.2c0 .48.32.8.8.8h28v-1.6h-28c-.48 0-.8.32-.8.8zM20.72 43h-14c-.4 0-.72.32-.72.64v18.72c0 .32.32.64.72.64h13.76c.4 0 .72-.32.72-.64V43.48c0-.32-.24-.48-.48-.48zM77.2 47h-8c-.48 0-.8.32-.8.8v14.4c0 .48.32.8.8.8h8c.48 0 .8-.32.8-.8V47.8c0-.48-.32-.8-.8-.8z"/>
            <path d="M32.8 56.6h7.6V39c0-.48.32-.8.8-.8h7.2v-5.6c0-.88-.72-1.6-1.6-1.6H15.6c-.88 0-1.6.72-1.6 1.6v9.6h7.2c.48 0 .8.32.8.8v13.6h9.2v4.8H26c-.48 0-.8.32-.8.8 0 .48.32.8.8.8h12v-1.6h-5.2v-4.8z"/>
            <path d="M72.4 46.2v-6.4c0-.48-.32-.8-.8-.8H42c-.48 0-.8.32-.8.8v20c0 .48.32.8.8.8h25.6V46.2h4.8z"/>
        </g>
    </g>
</svg>
