<svg xmlns="http://www.w3.org/2000/svg" width="30" height="23" viewBox="0 0 30 23">
    <path fill="#ED3C76" fill-rule="evenodd" d="M23.235 8.362c0 4.623-5.198 8.363-11.618 8.363-1.006 0-1.98-.098-2.904-.261a13.92 13.92 0 0 1-4.588 2.09 12.15 12.15 0 0 1-1.419.261h-.05c-.247 0-.478-.196-.527-.473-.066-.31.148-.507.33-.719.643-.718 1.37-1.355 1.93-2.711C1.717 13.377 0 11.008 0 8.362 0 3.74 5.198 0 11.617 0c6.42 0 11.618 3.74 11.618 8.362zm6.336 4.182c0 2.662-1.716 5.014-4.39 6.55.562 1.355 1.288 1.992 1.932 2.71.181.213.396.409.33.719-.066.294-.314.506-.578.474a12.15 12.15 0 0 1-1.419-.262 13.92 13.92 0 0 1-4.588-2.09c-.924.163-1.897.261-2.904.261-2.987 0-5.726-.817-7.789-2.156.479.033.974.065 1.452.065 3.548 0 6.898-1.012 9.456-2.841 2.756-1.993 4.274-4.688 4.274-7.612 0-.849-.132-1.682-.38-2.482 2.79 1.519 4.604 3.936 4.604 6.664z"/>
</svg>
