<svg xmlns="http://www.w3.org/2000/svg" width="84" height="95" viewBox="0 0 84 95">
    <g fill="none" fill-rule="evenodd">
        <path fill="#ED3C76" d="M80 20.975l-34.6-20c-2.2-1.3-5-1.3-7.2 0l-34.6 20c-2.2 1.3-3.6 3.7-3.6 6.2v40c0 2.6 1.4 5 3.6 6.2l34.6 20c1.1.6 2.3 1 3.6 1 1.3 0 2.5-.3 3.6-1l34.6-20c2.2-1.3 3.6-3.7 3.6-6.2v-40c0-2.5-1.3-4.9-3.6-6.2z"/>
        <path fill="#FFF" fill-rule="nonzero" d="M63 69l-2.702-15.695-7.094-7.093 9.42-9.418L52.19 26.361l-9.42 9.418-7.725-7.728s-5.233-5.232-11.481 1.016l-.5.5c-6.249 6.247-1.001 11.479-1.001 11.479l7.71 7.727-9.421 9.418 10.436 10.434 9.42-9.418 7.074 7.077L63 69zm-13.893-9.958l2.777-.245a1 1 0 0 0 .9-.85l.415-2.802 4.503.055.83 4.827-4.502 4.501-5.038-.855.115-4.631zm3.427-5.902L34.4 34.989l1.77-1.771 19.957 19.967-3.592-.045zm-19.55-16.72l18.26 18.255-.326 2.196-2.426.215-18.08-18.096 2.571-2.57zM56.44 64.928l2.502-2.501.555 3.07-3.057-.57zm-9.91-30.08l2.271 2.27 1.416-1.415-2.276-2.27 4.247-4.247 7.604 7.602-8.004 8.003.855.855-8.46-8.453 2.347-2.345zm-20.942-3.757c2.887-2.886 5.603-2.68 7.45-1l1.72 1.72-8.955 8.954c-2.902-3.001-2.651-3.026-2.857-4.002-.495-2.326 1.126-4.156 2.642-5.672zm1.616 11.109l1.776-1.796 18.14 18.121-.09 3.472C36.345 51.304 30.481 45.492 27.205 42.2zm3.582 23.593l-7.604-7.603 4.247-4.246 2.271 2.27 1.416-1.415-2.271-2.27 2.346-2.346 7.604 7.602-8.01 8.008z"/>
    </g>
</svg>
