<svg xmlns="http://www.w3.org/2000/svg" width="27" height="23" viewBox="0 0 27 23">
    <path fill="#ED3C76" fill-rule="evenodd" d="M25.071 7.008c0-4.208-2.862-5.091-5.273-5.091-2.245 0-4.776 2.41-5.56 3.339-.361.434-1.115.434-1.476 0-.784-.929-3.315-3.34-5.56-3.34-2.41 0-5.273.884-5.273 5.092 0 2.74 2.787 5.286 2.817 5.316l8.754 8.385 8.739-8.37c.045-.045 2.832-2.591 2.832-5.331zm1.929 0c0 3.594-3.315 6.603-3.45 6.738l-9.387 8.984a.938.938 0 0 1-.663.27.938.938 0 0 1-.663-.27l-9.402-9.014C3.315 13.611 0 10.602 0 7.008 0 2.62 2.697 0 7.202 0 9.839 0 12.31 2.066 13.5 3.234 14.69 2.066 17.161 0 19.798 0 24.303 0 27 2.62 27 7.008z"/>
</svg>
