<svg xmlns="http://www.w3.org/2000/svg" xmlns:xlink="http://www.w3.org/1999/xlink" width="1433" height="241" viewBox="0 0 1433 241">
    <defs>
        <path id="a" d="M1624.973 150.686V0H0v301.372h1624.973V150.686z"/>
    </defs>
    <g fill="none" fill-rule="evenodd" transform="translate(-140 -10)">
        <mask id="b" fill="#fff">
            <use xlink:href="#a"/>
        </mask>
        <path fill="#7753B8" d="M1682.703 269.335v8.8h-19.413v-17.602h-23.507v-11.727h-31.68v-18.575h-20.438v35.193h-15.327v-28.352h-8.178v17.599h-32.7v14.664h-13.283v-16.622H1500.8v-15.641h-20.435v-13.688h-27.598v7.823h-12.26V206.77h-4.09v43.011h-11.242v-17.594h-13.283v12.706h-9.202v14.667h-13.28v-52.79h-32.703v12.709h-16.352v-27.375h-7.155v45.948h-30.658v-42.037h-7.15v-37.151h-8.177v-16.615h-21.462v16.615h-6.13v33.24h-9.203v28.349h-35.765v-53.764h-8.17v-14.666h-7.157v-15.977H1173.777v12.068h-7.155v17.594h-11.24v53.77h-27.592v18.574h-15.327V190.15h-34.748v-42.037h-10.217v-12.068h-23.505v11.089h-7.155v9.776h-8.178v69.241h-12.263v-15.475h-19.415v-61.587H949.97v43.014h-5.26V92.18l-26.315-.318v60.16h-6.82v-46.485l-19.33-18.485-23.22 18.197.145 49.705h-9.012v-46.161l-12.983-.148-.227-2.562 10.132.073 3.077-1.365v-2.14l-2.47-1.927-10.962-.212-1.79-72.573-1.902 72.588h-11.525l-2.463 1.695.223 2.57 2.682 1.291h11.082v2.054h-14.917v89.472l-5.51-4.512-.375.408V145.18h-29.638v-9.135h-10.22v20.865h-7.152v47.901h-12.26v-29.328h-36.795V161.8h-26.57v17.597H674.05v2.81h-21.91v12.973h-4.592v25.993h-1.415l-2.318-10.515-2.98 10.515h-8.088v-23.907h-6.094v4.994H609.24v-3.75h-8.268v5.415h-6.1v-4.162h-6.524v21.658c-3.198.125-6.783.19-7.668-.05.493 1.658-.202 13.18-.202 13.18h-4.828v14.13h-3.91v-22.45l-4.467-8.013-4.476 9.621v16.04h-3.31v-58.99h-23.01v9.46h-2.55v20.278h-8.272v-28.61h-14.67v-23.002h-18.66v11.346h-18.042v44.924h-1.718v18.44l-1.69 1.62V98.339h-3.423V75.14h-3.42v-9.814h-3.414v-3.869h-3.738v-5.354l-3.103.596v-2.672l-1.867-.305s-.175-22.61 0-26.764c.185-4.663-4.923-5.114-4.923-5.114V10h-1.55v11.75c-5.992.214-6.277 4.612-6.277 4.612v29.741h-4.66v4.758h-3.733v4.758l-3.73.298v8.324l-2.802.303v23.494h-1.865V216.3l-2.87 2.196v2.402c-.17-.008-.295-.008-.295-.008v6.771h-4.037v-66.627H396.11v71.628h-.815l-8.94-8.551v-58.084h-5.665v-4.993h-14.895v-33.648h-13.213v69.452h-12.337v-58.672h-16.02v89.495h-4.04v-5.414l-6.577.301v-7.535h-.393v-4.84h-6.097v-4.162h-1.953v-39.68h-22.088v36.35h-4.327v-36.35h-19.825v30.101h-6.223v12.346l-2.232-1.252-2.795 3.132v4.886l-2.79.536v26.686h-4.387v-84.562l-1.885-1.805v-9.29l-3.788-3.624v-21.278l-5.313-4.883v-6.643l-.817-.982v-5.469l-1.427-1.177v-7.029l-2.046-.388V88.6l-.815-.588v-4.487l-1.225-.982V78.44l-1.627-3.323-.06-31.68v.589l-.765 31.091h-1.02v5.857l-2.968 6.063v5.18l-3.162 3.028v6.639h-2.095v7.182l-1.48 1.412v5.77l-1.125 1.076v6.048h-1.205v20.77h-3.03v5.31h-3.523v89.613h-4.29v-4.818h-2.462V189.89h-39.98v56.205c-3.12.186-6.162.163-6.162-.618v8.429l-1.743 1.665v-27.909H135.16v29.033h-5.655V220.59H102.95v49.366h-6.748v-25.43H70v66.245l1624.973.601v-42.037h-12.27z" mask="url(#b)"/>
    </g>
</svg>
